<svg width="31" height="44" viewBox="0 0 31 44" fill="none" xmlns="http://www.w3.org/2000/svg">
<rect x="1.64972" y="1.64972" width="26.9473" height="26.9473" rx="13.4737" fill="white"/>
<rect x="1.64972" y="1.64972" width="26.9473" height="26.9473" rx="13.4737" stroke="#DE5D0A" stroke-width="3.29967"/>
<path d="M15.948 8.24878C15.6416 8.24884 15.3927 8.35191 15.1716 8.573C14.9505 8.79413 14.848 9.04282 14.8484 9.34839V15.6736H13.2673C13.0146 15.6736 12.8136 15.7562 12.6345 15.9353C12.4556 16.1143 12.3734 16.3145 12.3738 16.5662V20.3826C12.3736 20.786 12.2007 21.1328 11.9236 21.4099C11.6463 21.6872 11.2989 21.8601 10.8953 21.8601C10.4858 21.86 10.1304 21.6931 9.85034 21.4031C9.5807 21.1239 9.41679 20.7782 9.41772 20.3806V12.0984H10.1736C10.2684 12.0984 10.3223 12.0728 10.3718 12.0232C10.4225 11.9724 10.4488 11.917 10.449 11.822V10.7234H8.24878V11.824C8.24885 11.9187 8.27564 11.9729 8.32593 12.0232C8.37602 12.0732 8.42917 12.0985 8.52222 12.0984H9.28003V20.3826C9.28014 20.81 9.42971 21.1797 9.75464 21.5154C10.0704 21.8415 10.4394 21.9982 10.8943 21.9978H10.8953C11.3342 21.9977 11.7031 21.8429 12.0291 21.5115C12.3598 21.1751 12.5104 20.8065 12.5105 20.3826V16.5671C12.5105 16.4341 12.5388 16.2509 12.6628 16.0906L12.7224 16.0242L12.7898 15.9646C12.9493 15.8412 13.131 15.8113 13.2625 15.8103H14.8484V21.9978H18.8748L18.3689 21.1892L16.3064 17.8894L15.781 17.0476H17.4607V14.0232H15.3982V8.79858H21.448V14.0232H17.9714L18.4773 14.8318L20.5388 18.1316L21.0652 18.9724H19.3855V21.9978H21.9978V9.34839C21.9977 9.04206 21.8943 8.79338 21.6736 8.573C21.4523 8.35224 21.2034 8.24918 20.8972 8.24878H15.948Z" fill="#DE5D0A" stroke="#DE5D0A" stroke-width="1.09989"/>
<path d="M14.8528 43.9956L2.44702 22.7997L14.8519 28.0472L27.947 22.7997L14.8528 43.9956Z" fill="#DE5D0A"/>
</svg>
